<svg width="24" height="24" viewBox="0 0 24 24" fill="none" xmlns="http://www.w3.org/2000/svg">
<path d="M7.00042 20L8.00042 20L17.4304 20C18.5004 20 19.4104 19.33 19.6204 18.39L20.9604 12.39C21.2304 11.15 20.1804 10 18.7704 10L14.5404 10L16.0604 5.06C16.3804 4.03 15.5404 3 14.3804 3C13.8004 3 13.2404 3.24 12.8604 3.65L7.00042 10L3.00042 10L3.00042 20L7.00042 20ZM13.6004 4.33C13.7904 4.12 14.0804 4 14.3804 4C14.6404 4 14.8804 4.11 15.0104 4.3C15.0804 4.4 15.1604 4.56 15.1004 4.77L13.5804 9.71L13.1804 11L14.5404 11L18.7704 11C19.1804 11 19.5704 11.17 19.8004 11.46C19.9204 11.61 20.0504 11.86 19.9804 12.18L18.6404 18.18C18.5404 18.65 18.0304 19 17.4304 19L8.00042 19L8.00042 10.39L13.6004 4.33ZM4.00042 11L7.00042 11L7.00042 19L4.00042 19L4.00042 11Z" fill="#3D3D3D"/>
</svg>
