<svg width="356" height="387" viewBox="0 0 356 387" fill="none" xmlns="http://www.w3.org/2000/svg">
<path d="M289.872 386.016C325.944 386.016 355.186 369.136 355.186 348.313C355.186 327.49 325.944 310.61 289.872 310.61C253.801 310.61 224.559 327.49 224.559 348.313C224.559 369.136 253.801 386.016 289.872 386.016Z" fill="#E0E0E0"/>
<path d="M40.338 352.361L146.621 291.001C146.876 290.916 147.097 290.753 147.254 290.535C147.411 290.317 147.496 290.055 147.496 289.787C147.496 289.518 147.411 289.256 147.254 289.038C147.097 288.82 146.876 288.657 146.621 288.572L138.986 284.166C138.333 283.84 137.613 283.67 136.882 283.67C136.152 283.67 135.432 283.84 134.778 284.166L91.6344 309.076C90.9852 309.41 90.2654 309.585 89.5351 309.585C88.8048 309.585 88.0851 309.41 87.4358 309.076L8.77311 263.663C8.11979 263.337 7.39945 263.167 6.6691 263.167C5.93875 263.167 5.21842 263.337 4.56509 263.663L0.874837 265.79C0.620058 265.876 0.398485 266.039 0.241482 266.257C0.0844786 266.474 0 266.736 0 267.005C0 267.274 0.0844786 267.535 0.241482 267.753C0.398485 267.971 0.620058 268.134 0.874837 268.219L79.6128 313.679C79.8676 313.764 80.0892 313.927 80.2462 314.145C80.4032 314.363 80.4877 314.625 80.4877 314.893C80.4877 315.162 80.4032 315.424 80.2462 315.642C80.0892 315.86 79.8676 316.023 79.6128 316.108L28.4953 345.536C28.2438 345.623 28.0258 345.786 27.8715 346.003C27.7172 346.22 27.6343 346.479 27.6343 346.745C27.6343 347.012 27.7172 347.271 27.8715 347.488C28.0258 347.705 28.2438 347.868 28.4953 347.955L36.13 352.361C36.7811 352.695 37.5023 352.869 38.234 352.869C38.9656 352.869 39.6868 352.695 40.338 352.361Z" fill="#E0E0E0"/>
<path d="M111.027 271.26V268.492L61.7456 296.998L64.0897 298.381L111.027 271.26Z" fill="#37474F"/>
<path d="M49.5732 83.6124C49.6943 83.6811 49.7905 83.7865 49.848 83.9133C49.9055 84.0402 49.9214 84.182 49.8932 84.3184L9.05568 265.583L7.89777 270.723C7.33306 270.763 6.76784 270.653 6.25975 270.403L3.52971 268.794C3.40852 268.723 3.31304 268.615 3.25716 268.487C3.20129 268.358 3.18793 268.215 3.21905 268.078L45.1392 82.012C45.1625 81.915 45.2074 81.8244 45.2707 81.7473C45.334 81.6702 45.414 81.6084 45.5047 81.5667C45.5954 81.525 45.6943 81.5045 45.7941 81.5066C45.8938 81.5087 45.9918 81.5334 46.0806 81.579L49.5732 83.6124Z" fill="#37474F"/>
<path d="M54.6945 81.1364L12.5767 268.087C12.5432 268.236 12.479 268.375 12.3882 268.497C12.2973 268.618 12.182 268.719 12.0495 268.793L9.31004 270.375C8.87898 270.615 8.39133 270.736 7.89795 270.723L9.05586 265.583L49.997 83.8947L54.6945 81.1364Z" fill="#455A64"/>
<path d="M59.4012 333.081V338.485C58.876 338.496 58.3558 338.38 57.8856 338.146L55.3438 336.677C55.1737 336.598 55.0275 336.476 54.92 336.322C54.8126 336.168 54.7477 335.989 54.7319 335.802V173.44L59.4389 176.151L59.4012 333.081Z" fill="#37474F"/>
<path d="M64.0991 173.449V335.83C64.0741 336.008 64.0038 336.177 63.895 336.32C63.7863 336.464 63.6427 336.577 63.4778 336.649L60.9549 338.118C60.4851 338.374 59.9554 338.501 59.4204 338.485V176.151L64.0991 173.449Z" fill="#455A64"/>
<path d="M120.328 303.314C119.812 303.295 119.308 303.149 118.86 302.891L116.243 301.375C116.073 301.275 115.927 301.139 115.816 300.977C115.706 300.814 115.633 300.628 115.602 300.434L87.6055 154.433L92.3124 157.144L119.321 298.061L120.328 303.314Z" fill="#37474F"/>
<path d="M125.017 300.575C124.996 300.767 124.925 300.949 124.811 301.105C124.697 301.26 124.544 301.383 124.367 301.46L121.976 302.853L121.863 302.919C121.391 303.169 120.863 303.295 120.328 303.286L119.321 298.061L92.3032 157.144L97.0102 154.443L124.96 300.358L125.017 300.575Z" fill="#455A64"/>
<path d="M62.48 304.717L115.716 273.981V268.558L62.48 299.295V304.717Z" fill="#455A64"/>
<path d="M118.022 14.9755L117.928 14.919L117.673 14.7778C116.308 14.0059 110.66 10.824 98.4691 3.82942C88.7445 -1.76245 76.6758 -1.42355 63.6376 6.12641C31.4043 24.7189 5.30895 79.9598 5.31836 129.524C5.31836 158.943 14.5252 179.757 28.7308 187.89C37.2786 192.795 46.0524 197.766 48.0481 198.905C48.1234 198.94 48.1957 198.981 48.2646 199.027L48.4718 199.14C58.1304 204.515 70.0673 204.101 82.9832 196.645C115.169 178.053 141.265 122.812 141.265 73.2476C141.274 43.9515 132.143 23.1938 118.022 14.9755Z" fill="#62A230"/>
<path opacity="0.1" d="M118.022 14.9755L117.928 14.919L117.673 14.7778C116.308 14.0059 110.66 10.824 98.4691 3.82942C88.7445 -1.76245 76.6758 -1.42355 63.6376 6.12641C31.4043 24.7189 5.30895 79.9598 5.31836 129.524C5.31836 158.943 14.5252 179.757 28.7308 187.89C37.2786 192.795 46.0524 197.766 48.0481 198.905C48.1234 198.94 48.1957 198.981 48.2646 199.027L48.4718 199.14C58.1304 204.515 70.0673 204.101 82.9832 196.645C115.169 178.053 141.265 122.812 141.265 73.2476C141.274 43.9515 132.143 23.1938 118.022 14.9755Z" fill="black"/>
<path opacity="0.1" d="M128.829 135.878L16.2479 70.8753C9.36634 89.5808 5.31836 109.99 5.31836 129.524C5.31836 158.943 14.5252 179.757 28.7308 187.89C37.2786 192.795 46.0524 197.766 48.0481 198.905C48.1234 198.94 48.1957 198.981 48.2646 199.027L48.4718 199.14C58.1304 204.515 70.0673 204.101 82.9832 196.645C101.594 185.923 118.163 162.934 128.829 135.878Z" fill="black"/>
<path opacity="0.1" d="M5.41309 135.097C6.51451 161.578 15.4201 180.284 28.7125 187.909C37.2604 192.814 46.0341 197.784 48.0299 198.923C48.1051 198.959 48.1775 199 48.2464 199.046L48.4535 199.159C58.1122 204.534 70.049 204.12 82.9649 196.664C87.5216 193.978 91.7734 190.806 95.6455 187.203L5.41309 135.097Z" fill="black"/>
<path d="M82.9831 17.1878C50.7969 35.7709 24.7109 91.0117 24.7109 140.576C24.7109 190.14 50.8063 215.247 82.9925 196.664C115.179 178.081 141.274 122.793 141.274 73.2665C141.274 23.7399 115.179 -1.40471 82.9831 17.1878Z" fill="#62A230"/>
<path d="M82.9832 35.0083C57.1891 49.9011 36.2808 94.1748 36.2808 133.854C36.2808 173.534 57.1985 193.699 82.9926 178.806C108.787 163.913 129.676 119.668 129.676 79.9503C129.676 40.233 108.787 20.1061 82.9832 35.0083Z" fill="#FAFAFA"/>
<path d="M82.9926 52.8289C63.5811 64.0315 47.8599 97.3379 47.8599 127.199C47.8599 157.06 63.5905 172.216 82.9926 161.014C102.395 149.811 118.125 116.505 118.125 86.6437C118.125 56.7828 102.376 41.617 82.9926 52.8289Z" fill="#62A230"/>
<path d="M82.9928 70.6494C69.9734 78.1805 59.458 100.492 59.458 120.543C59.458 140.595 70.011 150.734 82.9928 143.221C95.9746 135.709 106.528 113.37 106.528 93.3275C106.528 73.2853 96.0028 63.1277 82.9928 70.6494Z" fill="#FAFAFA"/>
<path d="M82.9927 88.4606C76.403 92.292 70.9994 103.655 71.0088 113.878C71.0182 124.102 76.3747 129.242 82.9927 125.42C89.6107 121.598 94.9766 110.235 94.9766 100.002C94.9766 89.7691 89.6107 84.6385 82.9927 88.4606Z" fill="#455A64"/>
<path d="M302.318 328.854C302.073 330.624 301.263 332.074 303.579 336.188C305.377 339.37 307.976 340.697 309.651 341.836C311.53 343.177 313.223 344.759 314.688 346.543C316.157 348.53 317.945 350.26 319.978 351.664C321.56 352.709 325.627 352.304 327.406 351.25C329.185 350.196 329.759 348.492 329.242 345.423C328.724 342.354 319.235 342.495 319.235 342.495L302.318 328.854Z" fill="#37474F"/>
<path d="M327.66 310.13L327.19 338.918C327.19 340.612 317.898 342.73 315.893 338.861C315.636 335.889 315.171 332.938 314.5 330.031C313.775 327.141 312.542 322.114 312.542 322.114C311.487 316.117 311.017 311.693 311.017 311.693L327.66 310.13Z" fill="#FFA8A7"/>
<path d="M284.874 323.385C284.874 323.385 280.496 350.026 280.365 351.495C280.233 352.963 276.1 353.914 273.041 353.82C269.981 353.726 268.174 352.304 268.202 351.645L267.449 323.215L284.874 323.385Z" fill="#FFA8A7"/>
<path d="M288.771 287.904C288.771 287.904 289.148 282.773 292.179 267.287C294.288 256.555 296.039 245.033 296.039 245.033C296.039 245.033 299.804 258.928 302.017 269.876C303.598 277.84 305.189 285.343 308.258 300.518C309.533 307.191 311.167 313.791 313.153 320.288C319.056 323.422 327.688 319.826 327.688 319.826C327.688 319.826 328.046 310.572 327.924 299.116C327.773 284.279 324.525 278.471 324.525 278.471C324.525 278.471 323.273 258.466 322.642 243.696C321.795 222.75 322.445 203.216 317.512 186.911C316.749 186.704 270.442 166.474 269.237 194.179C268.945 201.023 268.437 219.239 267.948 233.858C267.11 258.636 267.345 277.068 267.317 285.503C267.147 293.627 267.072 301.243 267.223 316.4C267.298 322.989 267.684 328.638 267.684 328.638C273.238 332.403 285.109 327.809 285.109 327.809C285.109 327.809 285.636 321.295 287.274 312.088C290.193 296.009 288.771 287.904 288.771 287.904Z" fill="#37474F"/>
<g opacity="0.2">
<path d="M288.649 226.45C286.042 225.697 280.798 222.618 279.829 220.66C278.708 218.41 278.464 206.596 278.454 206.097V205.635L297.517 204.28L297.574 204.694C298.184 209.007 298.558 213.35 298.694 217.704V218.316C298.769 220.199 291.266 225.979 290.504 226.44C290.316 226.552 290.101 226.61 289.883 226.61C289.466 226.616 289.051 226.562 288.649 226.45ZM279.358 206.502C279.443 210.145 279.81 218.608 280.638 220.265C281.467 221.922 286.286 224.849 288.904 225.593C289.845 225.857 290.052 225.725 290.061 225.725C291.699 224.717 297.866 219.455 297.828 218.382V217.761C297.705 213.577 297.353 209.404 296.774 205.259L279.358 206.502Z" fill="black"/>
</g>
<g opacity="0.2">
<path d="M322.002 221.347L322.181 220.406C318.952 218.853 314.255 216.264 313.897 215.388C313.455 214.315 312.626 206.775 312.297 203.489C313.238 203.244 316.185 202.548 320.6 201.606L320.421 200.731C314.904 201.898 311.732 202.736 311.704 202.745L311.336 202.84V203.216C311.449 204.346 312.447 214.296 313.031 215.746C313.615 217.196 320.656 220.698 322.002 221.347Z" fill="black"/>
</g>
<path d="M267.364 321.097L267.449 323.215C267.449 323.215 269.153 325.437 276.458 325.588C283.763 325.738 285.665 323.837 285.665 323.837L285.9 322.067C287.067 322.34 286.842 323.724 286.07 327.179C285.298 330.633 284.658 333.618 283.904 334.333C283.151 335.049 279.197 336.272 274.914 336.075C270.631 335.877 267.816 334.098 267.063 333.062C266.31 332.027 266.056 327.885 265.849 325.654C265.641 323.422 266.093 321.182 267.364 321.097Z" fill="#62A230"/>
<path d="M310.31 309.791L310.828 311.909C310.828 311.909 312.494 313.792 319.781 313.171C327.067 312.549 327.914 310.507 327.914 310.507V308.793C329.468 309.029 329.872 310.252 329.477 313.764C329.082 317.275 328.733 320.353 328.065 321.107C327.396 321.86 323.612 323.507 319.3 323.761C314.989 324.016 312.956 322.679 312.108 321.728C311.261 320.777 310.489 316.249 310.056 314.046C309.623 311.843 309.068 310.017 310.31 309.791Z" fill="#62A230"/>
<path opacity="0.2" d="M296.048 245.033L299.371 228.596C301.499 227.576 303.373 226.094 304.856 224.259C306.34 222.424 307.396 220.281 307.947 217.987C307.947 217.987 308.502 225.518 301.941 229.283L297.855 244.948L299.484 258.448L296.048 245.033Z" fill="black"/>
<path d="M241.928 361.379C241.269 361.313 241.344 363.262 241.57 364.147C241.796 365.032 244.517 367.847 249.355 368.854C254.194 369.861 260.868 368.958 263.74 368.854C266.611 368.75 271.553 370.134 274.406 370.548C277.258 370.963 282.408 370.003 284.111 368.393C284.389 368.071 284.594 367.694 284.714 367.286C284.834 366.879 284.866 366.451 284.808 366.03C284.752 364.147 284.582 363.742 284.356 363.761L241.928 361.379Z" fill="#37474F"/>
<path d="M283.434 348.407C283.728 347.382 283.929 346.333 284.036 345.272C284.114 344.389 283.988 343.501 283.669 342.674C283.483 342.351 283.234 342.07 282.936 341.847C282.639 341.623 282.299 341.463 281.937 341.375L281.523 344.02C280.967 344.557 279.405 344.801 278.764 345.216C277.324 346.157 277.042 348.106 276.665 349.781C276.607 350.177 276.458 350.553 276.232 350.883C274.933 352.493 274.556 349.678 274.491 348.925C274.396 347.833 274.302 346.618 273.493 345.875C272.665 345.29 271.682 344.962 270.669 344.933C269.68 344.849 268.503 344.886 267.967 343.992L267.901 342.326C267.063 342.231 265.867 342.391 265.519 343.267C265.39 343.704 265.365 344.165 265.444 344.613C265.576 345.865 265.754 347.117 265.999 348.379C266.236 349.303 266.378 350.25 266.423 351.203C266.433 351.379 266.433 351.555 266.423 351.73C266.197 352.138 265.874 352.485 265.481 352.737C263.937 353.465 262.256 353.857 260.549 353.886C258.063 354.046 255.955 353.669 253.159 353.632C250.59 353.486 248.028 354.008 245.722 355.147C244.5 355.734 243.485 356.679 242.813 357.856C242.14 359.033 241.841 360.386 241.956 361.737C242.946 363.527 244.502 364.938 246.381 365.747C248.724 366.656 251.195 367.19 253.705 367.329C256.651 367.63 260.727 367.112 263.683 366.943C266.167 366.88 268.648 367.143 271.064 367.724C274.829 368.477 277.39 368.666 280.788 367.649C282.078 367.254 283.679 366.491 284.272 365.07C284.462 363.118 284.344 361.148 283.923 359.233C283.857 358.847 283.782 358.47 283.697 358.094C283.613 357.717 283.471 357.153 283.349 356.701C283.161 355.995 283.151 355.223 283.029 354.498C282.982 354.234 282.841 353.556 282.662 352.7C282.741 351.874 282.866 351.054 283.038 350.243C283.123 349.668 283.283 349.009 283.434 348.407Z" fill="#455A64"/>
<path d="M264.7 353.039C263.016 354.468 261.947 356.49 261.716 358.687C261.772 360.118 259.249 360.212 259.193 358.791C259.562 356.97 260.341 355.257 261.471 353.782C262.416 353.138 263.569 352.873 264.7 353.039Z" fill="#FAFAFA"/>
<path d="M259.212 353.876C257.805 355.147 256.839 356.832 256.453 358.687C256.406 359.741 254.213 359.628 254.26 358.574C254.26 358.574 254.599 355.194 257.028 353.792C257.706 353.312 258.986 353.434 259.212 353.876Z" fill="#FAFAFA"/>
<path d="M254.882 353.651C253.724 353.651 251.295 355.195 250.099 358.734C249.384 361.338 249.198 364.059 249.553 366.736C247.147 366.433 244.903 365.363 243.152 363.686C242.489 363.121 241.945 362.429 241.552 361.653C241.38 360.716 241.399 359.755 241.608 358.827C241.816 357.898 242.21 357.022 242.766 356.249C244.451 354.253 247.049 352.945 251.135 352.738C255.719 352.502 256.115 353.726 256.115 353.726L254.882 353.651Z" fill="#FAFAFA"/>
<path d="M304.831 325.089C307.1 323.761 313.652 326.755 313.652 326.755L314.038 328.289C314.038 328.289 314.311 329.381 314.452 329.918C314.791 331.132 316.335 331.528 317.465 331.688C320.417 331.951 323.388 331.435 326.078 330.191C327.274 329.532 327.349 328.807 327.349 328.807C327.349 328.374 327.349 327.197 327.349 327.197C328.084 327.197 328.921 327.536 328.799 329.08C328.582 331.848 328.338 336.677 328.799 339.191C329.006 340.433 329.354 341.893 329.533 343.126C329.665 343.964 329.627 346.43 328.526 347.418C328.218 347.796 327.845 348.115 327.425 348.36C325.033 349.847 320.835 349.603 318.877 347.663C316.391 345.253 314.64 343.06 311.157 340.132C309.096 338.419 307.109 337.6 305.434 335.491C304.516 334.283 303.813 332.926 303.353 331.481C302.101 328.016 302.497 326.454 304.831 325.089Z" fill="#455A64"/>
<path d="M311.421 334.06C311.995 332.433 313.065 331.027 314.481 330.04C314.34 329.466 314.18 328.883 314.039 328.29C312.988 328.778 312.046 329.474 311.27 330.334C310.493 331.194 309.898 332.202 309.52 333.298C309.19 334.352 310.687 334.945 311.421 334.06Z" fill="#FAFAFA"/>
<path d="M314.81 335.548C314.987 335.046 315.214 334.563 315.488 334.107C315.291 333.326 315.083 332.488 314.858 331.603C313.985 332.509 313.323 333.595 312.918 334.785C312.589 335.792 314.086 336.385 314.81 335.548Z" fill="#FAFAFA"/>
<path d="M305.415 335.623C305.415 335.35 305.02 328.883 313.652 326.764C313.652 326.717 313.502 326.152 313.436 325.917C312.329 324.912 310.95 324.257 309.473 324.034C306.319 323.601 304.022 324.693 302.685 326.962C301.348 329.231 303.664 334.503 305.415 335.623Z" fill="#FAFAFA"/>
<path d="M255.079 147.928C251.436 147.072 244.903 145.104 237.635 142.6C229.643 139.776 221.321 137.319 219.918 137.065C217.244 136.585 213.413 136.839 211.041 136.199C208.217 135.427 205.345 135.201 202.869 133.374C202.494 133.151 202.172 132.849 201.923 132.491C201.675 132.132 201.506 131.724 201.429 131.294C201.429 130.851 201.533 130.409 201.514 129.967C201.514 129.27 201.053 128.63 201.128 127.943C201.222 127.001 202.22 126.305 202.258 125.354C202.224 124.936 202.149 124.523 202.032 124.12C201.919 123.367 202.662 122.36 203.077 121.748C203.302 121.428 203.933 120.863 203.575 120.44C202.358 119.073 201.026 117.813 199.593 116.674C196.976 114.481 195.545 112.475 196.637 111.223C198.144 109.482 200.911 111.732 204.413 114.179C206.362 115.544 208.273 117.004 210.25 118.303C211.022 118.82 214.147 121.372 214.957 120.091C215.169 119.67 215.239 119.191 215.155 118.726C215.07 117.785 214.9 116.778 214.882 115.799C214.823 114.824 215.017 113.851 215.446 112.974C215.605 112.638 215.852 112.352 216.162 112.146C216.318 112.046 216.498 111.989 216.683 111.981C216.868 111.973 217.052 112.013 217.216 112.099C217.528 112.329 217.748 112.663 217.838 113.04C218.289 114.217 218.732 115.394 219.174 116.571C219.776 118.56 220.61 120.472 221.66 122.266C222.5 123.609 223.649 124.732 225.011 125.542C225.952 125.984 232.222 127.5 234.274 127.999C237.814 128.846 257.931 132.998 258.327 133.092L312.476 127.199L311.723 144.841C311.723 144.841 262.215 149.613 255.079 147.928Z" fill="#FFA8A7"/>
<path d="M309.859 125.457C313.54 124.968 319.094 125.005 322.248 129.138C325.401 133.271 325.364 136.547 325.326 141.819C325.288 147.09 322.709 156.485 322.709 156.485L309.859 125.457Z" fill="#62A230"/>
<path d="M211.361 126.069C211.38 126.204 211.369 126.34 211.33 126.47C211.291 126.6 211.225 126.72 211.135 126.822C211.036 126.915 210.919 126.987 210.791 127.034C210.663 127.081 210.527 127.102 210.391 127.095C210.122 127.09 209.853 127.055 209.591 126.992C209.375 126.992 209.083 126.992 209.026 127.18C209.02 127.246 209.029 127.312 209.052 127.374C209.075 127.436 209.111 127.492 209.158 127.538C209.53 127.903 209.93 128.24 210.354 128.545C210.871 128.997 211.493 129.854 210.919 130.428C210.755 130.614 210.549 130.756 210.317 130.843C210.086 130.93 209.836 130.959 209.591 130.927C209.224 130.927 208.857 130.786 208.48 130.767C208.414 130.767 208.33 130.767 208.339 130.861C208.349 130.886 208.365 130.909 208.386 130.927C208.913 131.269 209.378 131.699 209.761 132.198C209.884 132.357 209.97 132.542 210.011 132.74C210.052 132.937 210.046 133.141 209.996 133.337C209.808 133.789 209.055 134.015 208.64 134.043H208.424C208.424 134.043 208.424 134.043 208.424 134.09H208.49C208.625 134.137 208.763 134.175 208.904 134.203C209.254 134.246 209.608 134.159 209.899 133.96C210.19 133.761 210.399 133.462 210.485 133.12C210.577 132.821 210.579 132.502 210.49 132.203C210.401 131.903 210.226 131.636 209.987 131.435C210.306 131.478 210.632 131.439 210.932 131.32C211.232 131.201 211.496 131.008 211.7 130.757C212.641 129.712 212.029 128.827 211.201 128.037C211.489 127.985 211.758 127.858 211.982 127.67C212.121 129.566 212.754 131.394 213.818 132.97C213.091 130.964 212.737 128.842 212.773 126.709C212.771 126.191 212.822 125.674 212.924 125.165C212.988 124.703 213.076 124.244 213.187 123.791C213.335 123.049 213.565 122.326 213.874 121.635C213.391 121.929 212.975 122.32 212.651 122.784C212.368 123.189 212.387 123.8 211.766 123.866C211.41 123.873 211.061 123.767 210.768 123.565C210.482 123.364 210.164 123.215 209.827 123.123C209.789 123.113 209.75 123.112 209.713 123.12C209.675 123.128 209.64 123.145 209.61 123.17C209.544 123.254 209.61 123.377 209.685 123.462C210.393 124.07 210.956 124.829 211.333 125.683C211.367 125.809 211.377 125.94 211.361 126.069Z" fill="#F28F8F"/>
<path d="M286.305 119.028L288.103 136.293L305.34 137.234L303.966 117.211L286.305 119.028Z" fill="#FFA8A7"/>
<path d="M276.233 98.364C276.233 98.364 271.865 104.285 272.288 104.954C272.712 105.622 275.668 106.281 275.668 106.281L276.233 98.364Z" fill="#F28F8F"/>
<path d="M288.366 81.9932C280.092 83.2829 277.531 86.7001 276.072 99.7102C274.537 113.257 275.705 117.597 277.39 119.526C278.529 120.826 285.213 121.409 288.639 120.647C292.932 119.705 302.657 116.834 307.467 110.235C313.163 102.478 315.13 91.6519 309.727 86.8884C302.167 80.1763 291.737 81.466 288.366 81.9932Z" fill="#FFA8A7"/>
<path d="M275.131 86.3236C275.723 86.9883 276.393 87.5794 277.126 88.084C278.186 88.852 279.296 89.5471 280.449 90.1645C281.577 90.6478 282.66 91.2273 283.688 91.8966C285.119 93.0357 285.232 94.4478 285.175 96.1611C285.175 97.2814 285.072 98.6652 285.006 100.162C284.912 102.421 286.258 104.21 287.124 101.226C287.124 101.226 288.687 96.2741 292.885 97.1308C297.084 97.9874 297.197 102.779 294.985 106.413C293.629 108.625 290.372 107.853 290.372 107.853C290.143 109.951 290.365 112.073 291.023 114.078C291.68 116.083 292.758 117.924 294.184 119.479C294.184 119.479 297.451 121.409 304.182 120.345C309.077 114.311 312.108 111.421 314.829 106.13C320.59 94.9562 318.491 87.6321 314.669 84.3937C314.161 79.0749 310.132 76.4861 305.453 75.1399C298.449 73.1347 291.605 77.0226 284.676 75.0457C283.535 74.7463 282.41 74.3881 281.306 73.9725C280.886 73.7435 280.395 73.6829 279.932 73.8031C279.671 73.9565 279.462 74.1825 279.328 74.4534C279.194 74.7242 279.142 75.0282 279.179 75.3281C279.193 76.01 279.372 76.6783 279.7 77.2764C280.028 77.8745 280.495 78.3848 281.061 78.7642C280.92 78.6701 280.224 78.8207 280.035 78.8207C279.64 78.8207 279.254 78.8207 278.859 78.8207C278.079 78.7725 277.303 78.6813 276.533 78.5477C276.008 78.449 275.468 78.449 274.942 78.5477C274.353 78.7426 273.843 79.1232 273.489 79.6323C273.134 80.1414 272.954 80.7517 272.975 81.3719C273.029 82.6039 273.402 83.8007 274.057 84.8456C274.285 85.2855 274.546 85.7072 274.839 86.1071C274.933 86.1839 275.03 86.2562 275.131 86.3236Z" fill="#37474F"/>
<path d="M277.39 119.526C278.332 120.571 282.86 121.155 286.38 120.939H286.625L286.38 119.056C286.38 119.056 280.751 120.355 277.39 119.526Z" fill="#F28F8F"/>
<path d="M321.287 134.532C319.169 129.43 314.575 124.6 308.663 125.58C307.289 125.805 305.98 125.918 304.681 126.154C303.984 129.044 294.768 129.317 287.199 127.566L278.322 128.63C272.89 130.456 268.522 140.934 267.75 156.871C266.978 172.809 267.835 197.351 268.146 208.45C279.041 212.923 290.997 214.149 302.572 211.98C318.849 208.742 321.504 201.757 321.504 201.757L320.252 173.27C320.252 167.076 322.511 158.679 322.991 154.697C324.441 142.449 322.568 137.629 321.287 134.532Z" fill="#455A64"/>
<path d="M160.243 146.036C159.888 146.306 159.6 146.655 159.402 147.055C159.204 147.455 159.103 147.896 159.104 148.343C159.097 148.503 159.134 148.662 159.21 148.803C159.286 148.943 159.4 149.061 159.537 149.143L190.406 164.459L192.015 161.211L161.147 145.895C160.997 145.84 160.835 145.824 160.677 145.848C160.519 145.873 160.37 145.938 160.243 146.036Z" fill="#455A64"/>
<path d="M159.537 149.152C155.772 147.269 148.043 141.433 148.043 141.433C148.043 141.433 159.264 144.944 161.147 145.904L159.537 149.152Z" fill="#455A64"/>
<path opacity="0.2" d="M191.112 161.362L160.742 146.384L148.043 141.423L160.3 147.599L190.999 162.925L191.112 161.362Z" fill="white"/>
<path d="M191.112 161.39C190.754 161.656 190.465 162.003 190.267 162.402C190.069 162.801 189.968 163.242 189.973 163.687C190.029 164.506 190.622 164.798 191.3 164.346C191.659 164.079 191.95 163.731 192.148 163.33C192.346 162.929 192.446 162.487 192.439 162.04C192.383 161.202 191.809 160.901 191.112 161.39Z" fill="#37474F"/>
<path d="M190.02 162.181C194.322 154.264 215.503 143.739 233.032 152.409C250.561 161.079 283.039 194.668 291.596 212.225C271.036 215.756 229.012 212.527 212.095 204.167C195.179 195.807 186.367 180.613 190.02 162.181Z" fill="#62A230"/>
<path opacity="0.7" d="M190.02 162.181C194.322 154.264 215.503 143.739 233.032 152.409C250.561 161.079 283.039 194.668 291.596 212.225C271.036 215.756 229.012 212.527 212.095 204.167C195.179 195.807 186.367 180.613 190.02 162.181Z" fill="white"/>
<path d="M204.988 189.905C204.122 176.528 211.257 160.449 220.926 154.01C225.011 151.28 228.89 150.715 232.081 151.986C214.741 144.125 194.228 154.405 190.001 162.181C186.348 180.613 195.197 195.789 212.105 204.148C208.207 202.162 205.477 197.163 204.988 189.905Z" fill="#62A230"/>
<path opacity="0.15" d="M212.123 204.148C229.068 212.508 271.054 215.737 291.624 212.206C273.643 212.564 240.723 206.784 222.055 196.937C206.635 188.803 193.079 174.57 190.047 162.181C186.367 180.613 195.216 195.789 212.123 204.148Z" fill="black"/>
<path opacity="0.5" d="M190.02 162.181C206.56 155.516 223.787 159.084 235.451 165.335C247.115 171.585 282.662 199.149 291.596 212.225C291.596 212.225 266.075 176.876 238.36 160.449C210.645 144.021 190.02 162.181 190.02 162.181Z" fill="white"/>
<path d="M328.141 245.899C325.373 249.796 315.375 244.816 304.521 235.977L298.797 223.739L300.803 232.823C294.055 226.915 287.903 220.36 282.436 213.251C285.59 213.035 288.668 212.696 291.624 212.197L306.799 219.531C306.799 219.531 332.782 239.375 328.141 245.899Z" fill="#62A230"/>
<path opacity="0.15" d="M328.141 245.899C325.373 249.796 315.375 244.816 304.521 235.977L298.797 223.739L300.803 232.823C294.055 226.915 287.903 220.36 282.436 213.251C285.59 213.035 288.668 212.696 291.624 212.197L306.799 219.531C306.799 219.531 332.782 239.375 328.141 245.899Z" fill="black"/>
<g opacity="0.15">
<path d="M282.436 213.261C285.083 216.748 287.911 220.095 290.909 223.287C288.766 220.794 287.002 218 285.674 214.993L291.699 213.948L306.762 219.54L291.596 212.225C288.668 212.705 285.59 213.044 282.436 213.261Z" fill="black"/>
</g>
<path d="M306.799 219.54L291.596 212.225C287.557 208.761 286.691 207.067 282.671 203.969C289.494 203.314 296.351 203.066 303.203 203.226L299.645 208.309L309.059 203.602C317.381 204.402 322.718 206.285 325.74 208.865C334.815 216.584 323.387 223.014 306.799 219.54Z" fill="#62A230"/>
<path opacity="0.5" d="M299.673 208.29L303.231 203.207C296.379 203.047 289.523 203.295 282.7 203.95C282.7 203.95 298.43 203.79 300.916 204.214L299.673 208.29Z" fill="white"/>
<path opacity="0.5" d="M315.131 220.5C326.823 220.66 333.187 215.2 325.75 208.827C322.728 206.248 317.39 204.365 309.068 203.565L304.361 205.927L309.605 204.478C309.605 204.478 320.318 205.56 325.11 210.851C328.056 214.108 324.724 220.415 315.131 220.5Z" fill="white"/>
<path d="M275.855 152.456C265.933 171.218 260.266 183.861 257.15 187.024C254.034 190.187 230.508 208.676 222.008 209.524C213.507 210.371 205.9 207.773 205.157 203.442C204.913 202.232 204.897 200.987 205.11 199.771C205.11 199.771 207.153 201.202 207.256 201.239C209.845 202.124 213.77 201.832 215.644 200.401C218.412 198.283 212.161 196.636 210.702 194.866C208.819 192.654 209.638 190.263 214.335 192.315C218.421 194.113 222.055 195.534 224.964 195.45C227.873 195.365 244.582 177.855 244.582 177.855C244.582 177.855 253.544 158.924 257.715 148.813C265.556 129.825 273.229 129.919 277.39 129.825L275.855 152.456Z" fill="#FFA8A7"/>
<path d="M278.322 128.63C274.246 129.035 271.205 129.213 267.798 131.011C263.665 133.186 262.206 137.074 260.332 141.367C256.765 149.5 253.375 156.881 253.375 156.881C254.722 160.552 262.3 169.364 269.163 166.803C269.163 166.803 274.943 156.824 277.955 150.385C280.77 144.351 281.325 133.581 278.322 128.63Z" fill="#62A230"/>
</svg>
