<svg width="43" height="43" viewBox="0 0 43 43" fill="none" xmlns="http://www.w3.org/2000/svg">
<g clip-path="url(#clip0_4004_1059)">
<path fill-rule="evenodd" clip-rule="evenodd" d="M20.7891 0.188738C21.0056 0.0650547 21.2506 0 21.5 0C21.7494 0 21.9944 0.0650547 22.2109 0.188738L42.2776 11.6554C42.497 11.7807 42.6793 11.9618 42.8062 12.1803C42.9331 12.3988 42.9999 12.6469 43 12.8995V14.9635C43.0001 21.2873 40.9399 27.439 37.1315 32.4873C33.323 37.5357 27.9735 41.2058 21.8927 42.9422C21.636 43.0153 21.364 43.0153 21.1073 42.9422C15.0265 41.2058 9.67704 37.5357 5.86855 32.4873C2.06005 27.439 -7.88029e-05 21.2873 2.26078e-09 14.9635L2.26078e-09 12.8995C8.14931e-05 12.6469 0.0669403 12.3988 0.193802 12.1803C0.320665 11.9618 0.503022 11.7807 0.7224 11.6554L20.7891 0.188738ZM20.2731 30.7044L32.6513 15.2273L30.4153 13.4385L19.8603 26.628L12.384 20.3987L10.5493 22.6003L20.2731 30.7044Z" fill="#62A230"/>
</g>
<defs>
<clipPath id="clip0_4004_1059">
<rect width="43" height="43" fill="white"/>
</clipPath>
</defs>
</svg>
