<svg width="404" height="420" viewBox="0 0 404 420" fill="none" xmlns="http://www.w3.org/2000/svg">
<path d="M305.638 299.23L111.709 411.419C106.056 414.69 96.1823 414.281 89.6509 410.509L63.9341 395.719C57.4129 391.957 56.6974 386.254 62.3498 382.983L256.33 270.753C261.982 267.492 271.856 267.901 278.388 271.673L304.053 286.494C310.585 290.255 311.29 295.959 305.638 299.23Z" fill="#E0E0E0"/>
<path d="M345.473 420C377.469 420 403.408 405.022 403.408 386.546C403.408 368.069 377.469 353.091 345.473 353.091C313.477 353.091 287.539 368.069 287.539 386.546C287.539 405.022 313.477 420 345.473 420Z" fill="#E0E0E0"/>
<path d="M48.3365 359.31C55.5527 363.471 55.5527 370.217 48.3365 374.377C41.1202 378.537 29.4475 378.537 22.2414 374.377C15.0354 370.217 15.0354 363.471 22.2414 359.31C29.4475 355.15 41.1816 355.15 48.3365 359.31Z" fill="#E0E0E0"/>
<path d="M34.129 333.532C34.129 333.532 48.0402 319.938 40.1187 297.175C35.6827 284.419 20.9742 275.107 12.562 274.167C15.3314 277.464 17.5413 281.193 19.1037 285.206L29.6521 292.218L19.952 289.151L21.9963 297.451C21.9963 297.451 31.0217 302.909 32.3505 304.095L22.63 301.55C22.63 301.55 23.4375 325.079 34.129 333.532Z" fill="#62A230"/>
<path opacity="0.4" d="M34.129 333.532C34.129 333.532 48.0402 319.938 40.1187 297.175C35.6827 284.419 20.9742 275.107 12.562 274.167C15.3314 277.464 17.5413 281.193 19.1037 285.206L29.6521 292.218L19.952 289.151L21.9963 297.451C21.9963 297.451 31.0217 302.909 32.3505 304.095L22.63 301.55C22.63 301.55 23.4375 325.079 34.129 333.532Z" fill="black"/>
<path d="M34.1296 333.532C34.1296 333.532 41.2845 305.097 30.6748 288.507C30.6748 288.507 43.1653 303.144 34.1296 333.532Z" fill="white"/>
<path d="M18.2047 337.376L35.2232 337.171H35.397L52.4257 337.376C52.4257 337.376 52.6199 358.36 46.1601 366.895C44.3713 369.164 40.1908 370.748 35.3152 370.748C30.4397 370.748 26.2387 369.154 24.4602 366.874C18.0105 358.34 18.2047 337.376 18.2047 337.376Z" fill="#37474F"/>
<path d="M18.1934 337.376C18.1934 342.486 25.8594 346.575 35.3141 346.575C44.7688 346.575 52.4246 342.486 52.4246 337.376C52.4246 332.265 44.7586 328.176 35.3141 328.176C25.8696 328.176 18.1934 332.347 18.1934 337.376Z" fill="#455A64"/>
<path d="M35.3145 334.943C29.427 334.943 24.439 336.834 22.6809 339.45C22.2548 338.852 22.0164 338.141 21.9961 337.406C21.9961 333.778 27.9551 330.844 35.2838 330.844C42.6125 330.844 48.5715 333.778 48.5715 337.406C48.5506 338.139 48.3162 338.849 47.8969 339.45C46.19 336.834 41.1815 334.943 35.3145 334.943Z" fill="#263238"/>
<path d="M35.3152 343.958C42.2925 343.958 47.9488 341.94 47.9488 339.45C47.9488 336.961 42.2925 334.943 35.3152 334.943C28.3379 334.943 22.6816 336.961 22.6816 339.45C22.6816 341.94 28.3379 343.958 35.3152 343.958Z" fill="#E0E0E0"/>
<path d="M35.1009 340.585C35.1009 340.585 41.7039 340.33 47.3665 331.57C49.697 327.952 50.8213 326.061 50.8213 326.061L41.6221 325.376L51.9252 322.8L56.7803 315.359L48.2353 314.725C48.2353 314.725 54.6032 312.487 59.1517 312.466C59.1517 312.466 67.0323 298.535 69.373 296.552C63.4112 296.92 57.5837 298.479 52.2345 301.137C46.8853 303.795 42.1229 307.498 38.2286 312.027C25.2373 327.348 33.1793 340.974 35.1009 340.585Z" fill="#62A230"/>
<path d="M35.0998 340.585C35.0998 340.585 31.0113 315.737 57.3006 300.793C57.3006 300.793 29.9381 313.948 35.0998 340.585Z" fill="white"/>
<path d="M35.1 340.585C35.1 340.585 29.1308 340.973 23.2024 333.604C20.7595 330.537 19.5636 328.953 19.5636 328.953L27.7407 327.471L18.2042 326.122L13.0935 319.866L20.7493 318.486C20.7493 318.486 14.7903 317.076 10.6915 317.464C10.6915 317.464 2.26913 305.638 0 304.064C5.41246 303.835 10.8159 304.693 15.8912 306.588C20.9666 308.482 25.6109 311.374 29.5499 315.093C42.766 327.716 36.8785 340.759 35.1 340.585Z" fill="#62A230"/>
<path opacity="0.2" d="M35.1 340.585C35.1 340.585 29.1308 340.973 23.2024 333.604C20.7595 330.537 19.5636 328.953 19.5636 328.953L27.7407 327.471L18.2042 326.122L13.0935 319.866L20.7493 318.486C20.7493 318.486 14.7903 317.076 10.6915 317.464C10.6915 317.464 2.26913 305.638 0 304.064C5.41246 303.835 10.8159 304.693 15.8912 306.588C20.9666 308.482 25.6109 311.374 29.5499 315.093C42.766 327.716 36.8785 340.759 35.1 340.585Z" fill="black"/>
<path d="M35.1 340.585C35.1 340.585 36.4901 317.781 11.3252 306.793C11.3252 306.793 37.2158 316.044 35.1 340.585Z" fill="white"/>
<path d="M229.254 358.094C228.865 358.094 228.486 357.965 228.178 357.727C227.869 357.49 227.648 357.157 227.547 356.781C227.447 356.405 227.474 356.006 227.624 355.646C227.773 355.287 228.037 354.987 228.375 354.793L301.642 312.803C302.77 312.16 303.712 311.234 304.372 310.116C305.033 308.997 305.39 307.726 305.409 306.427C305.428 305.128 305.107 303.847 304.478 302.71C303.85 301.573 302.935 300.62 301.826 299.945L296.02 296.46C292.923 294.603 289.386 293.609 285.775 293.58C282.164 293.551 278.611 294.489 275.485 296.296L269.117 299.935C266.783 301.144 264.193 301.775 261.564 301.775C258.935 301.775 256.345 301.144 254.01 299.935C251.7 298.606 250.371 296.644 250.371 294.558C250.371 292.473 251.7 290.47 254.01 289.172L264.671 283.039C266.49 281.984 268.001 280.471 269.053 278.651C270.106 276.831 270.664 274.767 270.671 272.664V236.491C270.671 236.022 270.857 235.572 271.189 235.241C271.52 234.909 271.97 234.723 272.439 234.723C272.671 234.72 272.902 234.763 273.117 234.849C273.333 234.936 273.53 235.064 273.696 235.226C273.862 235.388 273.994 235.582 274.086 235.795C274.177 236.009 274.225 236.238 274.228 236.471V272.644C274.22 275.366 273.498 278.039 272.135 280.395C270.772 282.752 268.815 284.71 266.46 286.075L255.799 292.207C254.613 292.892 253.928 293.741 253.928 294.528C253.928 295.315 254.613 296.163 255.799 296.848C257.597 297.74 259.577 298.205 261.584 298.205C263.591 298.205 265.572 297.74 267.369 296.848L273.686 293.199C277.36 291.079 281.534 289.98 285.775 290.016C290.017 290.052 294.171 291.222 297.809 293.403L303.614 296.879C305.255 297.866 306.609 299.264 307.544 300.935C308.479 302.605 308.962 304.491 308.946 306.406C308.929 308.32 308.414 310.197 307.45 311.852C306.486 313.506 305.108 314.88 303.451 315.839L230.174 357.9C229.891 358.046 229.573 358.114 229.254 358.094Z" fill="#62A230"/>
<path opacity="0.2" d="M229.254 358.094C228.865 358.094 228.486 357.965 228.178 357.727C227.869 357.49 227.648 357.157 227.547 356.781C227.447 356.405 227.474 356.006 227.624 355.646C227.773 355.287 228.037 354.987 228.375 354.793L301.642 312.803C302.77 312.16 303.712 311.234 304.372 310.116C305.033 308.997 305.39 307.726 305.409 306.427C305.428 305.128 305.107 303.847 304.478 302.71C303.85 301.573 302.935 300.62 301.826 299.945L296.02 296.46C292.923 294.603 289.386 293.609 285.775 293.58C282.164 293.551 278.611 294.489 275.485 296.296L269.117 299.935C266.783 301.144 264.193 301.775 261.564 301.775C258.935 301.775 256.345 301.144 254.01 299.935C251.7 298.606 250.371 296.644 250.371 294.558C250.371 292.473 251.7 290.47 254.01 289.172L264.671 283.039C266.49 281.984 268.001 280.471 269.053 278.651C270.106 276.831 270.664 274.767 270.671 272.664V236.491C270.671 236.022 270.857 235.572 271.189 235.241C271.52 234.909 271.97 234.723 272.439 234.723C272.671 234.72 272.902 234.763 273.117 234.849C273.333 234.936 273.53 235.064 273.696 235.226C273.862 235.388 273.994 235.582 274.086 235.795C274.177 236.009 274.225 236.238 274.228 236.471V272.644C274.22 275.366 273.498 278.039 272.135 280.395C270.772 282.752 268.815 284.71 266.46 286.075L255.799 292.207C254.613 292.892 253.928 293.741 253.928 294.528C253.928 295.315 254.613 296.163 255.799 296.848C257.597 297.74 259.577 298.205 261.584 298.205C263.591 298.205 265.572 297.74 267.369 296.848L273.686 293.199C277.36 291.079 281.534 289.98 285.775 290.016C290.017 290.052 294.171 291.222 297.809 293.403L303.614 296.879C305.255 297.866 306.609 299.264 307.544 300.935C308.479 302.605 308.962 304.491 308.946 306.406C308.929 308.32 308.414 310.197 307.45 311.852C306.486 313.506 305.108 314.88 303.451 315.839L230.174 357.9C229.891 358.046 229.573 358.114 229.254 358.094Z" fill="black"/>
<path d="M272.388 250.76C271.227 250.76 270.113 250.299 269.291 249.479C268.469 248.659 268.006 247.546 268.003 246.385V234.12H276.773V246.385C276.77 247.546 276.307 248.659 275.485 249.479C274.663 250.299 273.549 250.76 272.388 250.76Z" fill="#62A230"/>
<path opacity="0.4" d="M272.388 250.76C271.227 250.76 270.113 250.299 269.291 249.479C268.469 248.659 268.006 247.546 268.003 246.385V234.12H276.773V246.385C276.77 247.546 276.307 248.659 275.485 249.479C274.663 250.299 273.549 250.76 272.388 250.76Z" fill="black"/>
<path d="M247.704 311.832L217.234 329.209C214.865 330.562 212.184 331.274 209.455 331.274C206.727 331.274 204.046 330.562 201.677 329.209L182.154 317.965L179.926 316.677C177.611 315.338 175.689 313.414 174.353 311.098C173.016 308.782 172.312 306.156 172.311 303.481V247.264L218.011 221.108V278.531C218.011 280.841 218.62 283.111 219.776 285.111C220.931 287.112 222.592 288.773 224.593 289.928L247.714 303.277C248.465 303.711 249.088 304.335 249.521 305.087C249.954 305.838 250.182 306.69 250.181 307.558C250.18 308.425 249.95 309.277 249.515 310.027C249.08 310.778 248.456 311.4 247.704 311.832Z" fill="#263238"/>
<path d="M210.722 331.171C213.017 330.978 215.24 330.28 217.233 329.127L247.703 311.751C248.454 311.318 249.079 310.694 249.513 309.943C249.947 309.192 250.175 308.34 250.175 307.473C250.175 306.606 249.947 305.754 249.513 305.003C249.079 304.252 248.454 303.628 247.703 303.195L231.911 294.078H210.722V331.171Z" fill="#37474F"/>
<path d="M247.161 299.505L248.01 300.18C248.69 300.725 249.239 301.415 249.616 302.201C249.993 302.987 250.188 303.847 250.187 304.718V307.56H247.121L247.161 299.505Z" fill="#37474F"/>
<path d="M221.547 225.452V277.151C221.547 279.387 222.136 281.583 223.253 283.519C224.371 285.455 225.979 287.062 227.915 288.18L247.162 299.536C247.89 299.954 248.495 300.557 248.916 301.284C249.337 302.011 249.558 302.836 249.558 303.676C249.558 304.516 249.337 305.341 248.916 306.067C248.495 306.794 247.89 307.397 247.162 307.815L244.974 309.062L217.632 324.578C215.342 325.889 212.748 326.578 210.109 326.578C207.47 326.578 204.877 325.889 202.586 324.578L183.646 313.396C181.71 312.278 180.103 310.671 178.985 308.735C177.867 306.799 177.278 304.603 177.278 302.367V250.647L221.547 225.452Z" fill="#455A64"/>
<path d="M221.547 277.151V225.452L177.278 250.647V302.316C177.278 304.552 177.867 306.748 178.985 308.684C180.103 310.62 181.71 312.227 183.646 313.345L227.261 287.741C225.509 286.584 224.07 285.012 223.073 283.164C222.076 281.316 221.552 279.251 221.547 277.151Z" fill="#263238"/>
<path d="M81.4633 340.79L76.4344 343.703V352.902C73.1963 352.906 70.0173 352.034 67.2352 350.377L66.8468 350.142C65.6937 349.456 64.6916 348.544 63.901 347.46C63.1104 346.376 62.5478 345.143 62.2472 343.835C62.0738 343.272 61.9842 342.687 61.9814 342.098V329.556L81.4633 340.79Z" fill="#263238"/>
<path d="M300.118 2.77013L299.719 2.52482C296.935 0.872649 293.758 0.000569447 290.52 0.000154476C289.487 -0.00737934 288.471 0.260782 287.577 0.776976L70.8231 125.467C68.1562 127.006 65.9415 129.219 64.402 131.886C62.8625 134.552 62.0524 137.577 62.0532 140.656V329.556L81.4737 340.8L287.444 222.375C290.11 220.836 292.324 218.622 293.863 215.956C295.403 213.29 296.213 210.265 296.214 207.186V11.3152H304.973C304.972 9.59251 304.525 7.89955 303.674 6.40178C302.823 4.90401 301.598 3.65268 300.118 2.77013Z" fill="#37474F"/>
<path d="M63.8632 132.785C62.6428 135.23 62.006 137.924 62.0029 140.656V329.556L81.4235 340.8L88.7113 336.589V148.199L63.8632 132.785Z" fill="#263238"/>
<path d="M70.7622 334.605V347.147C70.7635 348.155 71.0298 349.144 71.5345 350.017C72.0392 350.889 72.7645 351.613 73.6375 352.116C74.5106 352.62 75.5007 352.885 76.5084 352.884C77.5161 352.884 78.5061 352.618 79.3788 352.115L296.204 227.414C298.87 225.875 301.084 223.661 302.624 220.995C304.163 218.329 304.974 215.304 304.974 212.226V199.388L70.7622 334.605Z" fill="#37474F"/>
<path d="M304.974 10.8143C304.974 9.80571 304.709 8.81474 304.205 7.94107C303.701 7.06739 302.976 6.34181 302.103 5.83728C301.229 5.33275 300.239 5.06706 299.23 5.06693C298.221 5.06679 297.231 5.33223 296.357 5.83653L79.5321 130.537C76.8652 132.075 74.6505 134.289 73.111 136.956C71.5714 139.622 70.7613 142.647 70.7622 145.726V334.616L304.974 199.388" fill="#455A64"/>
<path d="M292.412 19.5127H292.361C291.371 19.5043 290.393 19.7321 289.509 20.1771L85.7264 137.324C83.3707 138.684 81.4144 140.64 80.0544 142.996C78.6944 145.352 77.9785 148.024 77.9787 150.744V311.689C77.973 312.393 78.1158 313.089 78.3978 313.734C78.6868 314.381 79.1075 314.962 79.6331 315.438C80.1587 315.914 80.7778 316.276 81.4508 316.5C82.1238 316.724 82.836 316.806 83.5422 316.739C84.2484 316.673 84.9331 316.461 85.5527 316.115L289.376 198.928C291.73 197.568 293.686 195.614 295.046 193.26C296.406 190.906 297.122 188.236 297.124 185.517V24.5723C297.115 23.292 296.626 22.0617 295.753 21.1248C294.881 20.1879 293.688 19.6126 292.412 19.5127Z" fill="#62A230"/>
<path opacity="0.5" d="M292.412 19.5127H292.361C291.371 19.5043 290.393 19.7321 289.509 20.1771L85.7264 137.324C83.3707 138.684 81.4144 140.64 80.0544 142.996C78.6944 145.352 77.9785 148.024 77.9787 150.744V311.689C77.973 312.393 78.1158 313.089 78.3978 313.734C78.6868 314.381 79.1075 314.962 79.6331 315.438C80.1587 315.914 80.7778 316.276 81.4508 316.5C82.1238 316.724 82.836 316.806 83.5422 316.739C84.2484 316.673 84.9331 316.461 85.5527 316.115L289.376 198.928C291.73 197.568 293.686 195.614 295.046 193.26C296.406 190.906 297.122 188.236 297.124 185.517V24.5723C297.115 23.292 296.626 22.0617 295.753 21.1248C294.881 20.1879 293.688 19.6126 292.412 19.5127Z" fill="white"/>
<path d="M99.7298 141.535L294.671 28.9776C296.909 27.6795 298.913 27.7817 300.344 28.9776L307.09 33.6386L302.49 39.3318V196.536C302.49 202.301 298.984 208.985 294.671 211.479L101.651 322.892L101.294 329.025L94.1387 324.149C92.7179 323.076 91.8491 320.98 91.8491 318.098V156.478C91.9104 150.714 95.4061 144.029 99.7298 141.535Z" fill="#62A230"/>
<path opacity="0.2" d="M99.7298 141.535L294.671 28.9776C296.909 27.6795 298.913 27.7817 300.344 28.9776L307.09 33.6386L302.49 39.3318V196.536C302.49 202.301 298.984 208.985 294.671 211.479L101.651 322.892L101.294 329.025L94.1387 324.149C92.7179 323.076 91.8491 320.98 91.8491 318.098V156.478C91.9104 150.714 95.4061 144.029 99.7298 141.535Z" fill="white"/>
<path d="M98.554 322.698V161.047C98.6343 157.78 99.5341 154.585 101.171 151.756L94.21 147.76C92.7671 150.444 91.979 153.431 91.9102 156.478V318.129C91.9102 321.011 92.779 323.106 94.1997 324.18L100.752 328.667C99.4433 327.583 98.554 325.519 98.554 322.698Z" fill="#62A230"/>
<path opacity="0.3" d="M101.201 328.984L101.314 329.056C101.274 329.036 101.236 329.012 101.201 328.984Z" fill="#62A230"/>
<path d="M106.373 328.616L301.324 216.048C305.648 213.554 309.154 206.849 309.154 201.115V39.4544C309.154 33.6998 305.648 31.0525 301.324 33.5465L106.373 146.104C102.049 148.598 98.5537 155.303 98.5537 161.047V322.698C98.5537 328.462 102.049 331.11 106.373 328.616Z" fill="#62A230"/>
<path d="M106.373 328.616L301.324 216.048C305.648 213.554 309.154 206.849 309.154 201.115V39.4544C309.154 33.6998 305.648 31.0525 301.324 33.5465L106.373 146.104C102.049 148.598 98.5537 155.303 98.5537 161.047V322.698C98.5537 328.462 102.049 331.11 106.373 328.616Z" fill="#62A230"/>
<path opacity="0.7" d="M106.373 328.616L301.324 216.048C305.648 213.554 309.154 206.849 309.154 201.115V39.4544C309.154 33.6998 305.648 31.0525 301.324 33.5465L106.373 146.104C102.049 148.598 98.5537 155.303 98.5537 161.047V322.698C98.5537 328.462 102.049 331.11 106.373 328.616Z" fill="white"/>
<path d="M106.374 146.104L301.325 33.5465C305.649 31.0525 309.154 33.6998 309.154 39.4544V47.3555L98.5951 168.989V161.088C98.5542 155.282 102.05 148.598 106.374 146.104Z" fill="#62A230"/>
<path opacity="0.5" d="M106.374 146.104L301.325 33.5465C305.649 31.0525 309.154 33.6998 309.154 39.4544V47.3555L98.5951 168.989V161.088C98.5542 155.282 102.05 148.598 106.374 146.104Z" fill="white"/>
<path d="M304.432 33.3113C306.875 33.3113 308.449 35.7236 308.449 39.4441V201.115C308.449 206.634 305.096 213.064 300.977 215.425L106.015 328.002C105.189 328.522 104.241 328.815 103.266 328.851C100.823 328.851 99.2487 326.439 99.2487 322.718V161.047C99.2487 155.518 102.601 149.088 106.721 146.737L301.682 34.1495C302.508 33.6322 303.457 33.343 304.432 33.3113ZM304.432 32.6061C303.345 32.6458 302.287 32.9701 301.365 33.5464L106.373 146.104C102.049 148.598 98.5435 155.303 98.5435 161.047V322.698C98.5435 326.991 100.486 329.556 103.266 329.556C104.352 329.512 105.408 329.188 106.332 328.616L301.324 216.048C305.648 213.554 309.154 206.849 309.154 201.115V39.4544C309.154 35.1716 307.212 32.6061 304.432 32.6061Z" fill="#62A230"/>
<path d="M115.143 151.02C115.096 152.043 114.806 153.039 114.298 153.928C113.79 154.816 113.077 155.572 112.22 156.131C110.605 157.061 109.287 156.305 109.287 154.444C109.336 153.421 109.628 152.424 110.138 151.536C110.648 150.647 111.361 149.892 112.22 149.334C113.835 148.363 115.143 149.16 115.143 151.02Z" fill="white"/>
<path d="M125.467 145.061C125.419 146.084 125.129 147.08 124.621 147.969C124.113 148.857 123.401 149.612 122.543 150.172C120.928 151.102 119.61 150.346 119.61 148.485C119.659 147.462 119.951 146.465 120.461 145.577C120.971 144.688 121.685 143.933 122.543 143.375C124.158 142.444 125.467 143.252 125.467 145.061Z" fill="white"/>
<path d="M135.79 139.102C135.743 140.125 135.453 141.121 134.945 142.01C134.437 142.898 133.724 143.653 132.867 144.213C131.242 145.143 129.934 144.387 129.934 142.526C129.981 141.502 130.271 140.505 130.781 139.616C131.292 138.727 132.007 137.972 132.867 137.416C134.482 136.485 135.79 137.242 135.79 139.102Z" fill="white"/>
<path d="M139.122 273.686C138.984 273.69 138.849 273.721 138.723 273.778L110.349 290.132C110.019 290.32 109.745 290.593 109.555 290.921C109.364 291.25 109.265 291.623 109.266 292.003V314.418C109.265 314.514 109.286 314.608 109.327 314.694C109.366 314.788 109.426 314.873 109.501 314.942C109.576 315.011 109.665 315.063 109.763 315.094C109.86 315.125 109.962 315.134 110.064 315.122C110.165 315.109 110.262 315.075 110.349 315.021L138.723 298.667C139.051 298.479 139.324 298.208 139.514 297.882C139.704 297.555 139.805 297.185 139.807 296.807V274.392C139.807 274.208 139.736 274.032 139.608 273.9C139.48 273.768 139.306 273.692 139.122 273.686Z" fill="white"/>
<path d="M136.23 296.081L114.826 308.439L121.143 291.983L125.528 297.185L130.005 290.807L136.23 296.081Z" fill="#62A230"/>
<path opacity="0.4" d="M136.23 296.081L114.826 308.439L121.143 291.983L125.528 297.185L130.005 290.807L136.23 296.081Z" fill="white"/>
<path d="M128.799 285.819C128.764 286.497 128.568 287.157 128.229 287.745C127.89 288.333 127.416 288.832 126.847 289.202C125.774 289.826 124.895 289.315 124.895 288.068C124.932 287.392 125.129 286.734 125.468 286.148C125.807 285.562 126.28 285.064 126.847 284.695C127.93 284.071 128.799 284.572 128.799 285.819Z" fill="#62A230"/>
<path d="M177.197 251.649C177.058 251.646 176.921 251.678 176.798 251.741L148.424 268.095C148.094 268.283 147.82 268.556 147.629 268.884C147.439 269.213 147.339 269.586 147.34 269.966V292.371C147.339 292.47 147.36 292.568 147.402 292.657C147.441 292.751 147.5 292.836 147.576 292.905C147.651 292.974 147.74 293.025 147.837 293.056C147.935 293.088 148.037 293.097 148.139 293.085C148.24 293.072 148.337 293.038 148.424 292.984L176.798 276.63C177.126 276.442 177.399 276.171 177.589 275.845C177.779 275.518 177.88 275.148 177.882 274.77V252.354C177.882 252.171 177.81 251.994 177.682 251.863C177.555 251.731 177.38 251.654 177.197 251.649Z" fill="white"/>
<path d="M174.315 274.044L152.911 286.402L159.228 269.945L163.613 275.148L168.09 268.77L174.315 274.044Z" fill="#62A230"/>
<path opacity="0.4" d="M174.315 274.044L152.911 286.402L159.228 269.945L163.613 275.148L168.09 268.77L174.315 274.044Z" fill="white"/>
<path d="M166.31 265.694C167.072 264.374 167.071 262.947 166.309 262.507C165.546 262.066 164.31 262.78 163.548 264.1C162.786 265.42 162.786 266.847 163.549 267.287C164.312 267.727 165.548 267.014 166.31 265.694Z" fill="#62A230"/>
<path d="M290.991 185.793C290.852 185.79 290.715 185.822 290.592 185.885L262.218 202.239C261.89 202.429 261.619 202.702 261.431 203.031C261.242 203.359 261.144 203.731 261.145 204.11V226.515C261.145 226.613 261.162 226.709 261.196 226.801C261.235 226.895 261.294 226.98 261.37 227.049C261.445 227.118 261.534 227.169 261.631 227.201C261.728 227.232 261.831 227.241 261.932 227.229C262.034 227.216 262.131 227.182 262.218 227.128L290.602 210.774C290.93 210.584 291.201 210.311 291.39 209.983C291.578 209.654 291.677 209.282 291.676 208.904V186.498C291.677 186.407 291.66 186.317 291.627 186.232C291.593 186.147 291.543 186.069 291.479 186.004C291.416 185.938 291.34 185.886 291.256 185.85C291.172 185.814 291.082 185.795 290.991 185.793Z" fill="white"/>
<path d="M288.099 208.188L266.695 220.546L273.022 204.089L277.397 209.292L281.874 202.914L288.099 208.188Z" fill="#62A230"/>
<path opacity="0.4" d="M288.099 208.188L266.695 220.546L273.022 204.089L277.397 209.292L281.874 202.914L288.099 208.188Z" fill="white"/>
<path d="M280.678 197.926C280.64 198.602 280.443 199.26 280.104 199.846C279.765 200.431 279.293 200.929 278.725 201.299C277.642 201.922 276.773 201.422 276.773 200.175C276.808 199.497 277.004 198.837 277.343 198.249C277.682 197.661 278.156 197.161 278.725 196.791C279.798 196.168 280.678 196.679 280.678 197.926Z" fill="#62A230"/>
<path d="M215.281 229.612C215.143 229.609 215.006 229.64 214.883 229.704L186.508 246.058C186.178 246.246 185.904 246.518 185.714 246.847C185.524 247.176 185.424 247.549 185.425 247.929V270.334C185.423 270.433 185.444 270.53 185.486 270.62C185.526 270.714 185.585 270.798 185.66 270.867C185.735 270.936 185.825 270.988 185.922 271.019C186.019 271.05 186.122 271.06 186.223 271.048C186.324 271.035 186.422 271.001 186.508 270.947L214.883 254.593C215.212 254.404 215.485 254.132 215.676 253.803C215.866 253.475 215.966 253.102 215.966 252.722V230.317C215.968 230.226 215.951 230.135 215.917 230.05C215.884 229.966 215.833 229.888 215.77 229.823C215.706 229.757 215.63 229.705 215.547 229.669C215.463 229.633 215.373 229.613 215.281 229.612Z" fill="white"/>
<path d="M212.399 252.007L190.996 264.364L197.312 247.908L201.697 253.111L206.174 246.733L212.399 252.007Z" fill="#62A230"/>
<path opacity="0.4" d="M212.399 252.007L190.996 264.364L197.312 247.908L201.697 253.111L206.174 246.733L212.399 252.007Z" fill="white"/>
<path d="M204.968 241.745C204.933 242.423 204.737 243.083 204.398 243.671C204.059 244.259 203.585 244.758 203.016 245.128C201.943 245.741 201.063 245.24 201.063 243.993C201.101 243.316 201.298 242.657 201.637 242.069C201.976 241.482 202.448 240.982 203.016 240.61C204.099 239.987 204.968 240.498 204.968 241.745Z" fill="#62A230"/>
<path d="M253.367 207.646C253.229 207.648 253.093 207.679 252.968 207.738L224.594 224.092C224.265 224.281 223.991 224.554 223.801 224.882C223.611 225.211 223.51 225.583 223.51 225.963V248.378C223.509 248.474 223.53 248.568 223.572 248.654C223.611 248.748 223.671 248.832 223.746 248.901C223.821 248.971 223.909 249.023 224.006 249.055C224.103 249.087 224.205 249.098 224.307 249.087C224.408 249.076 224.506 249.043 224.594 248.992L252.968 232.638C253.296 232.447 253.568 232.174 253.758 231.846C253.948 231.518 254.05 231.146 254.052 230.767V208.311C254.039 208.135 253.962 207.97 253.836 207.848C253.71 207.725 253.543 207.653 253.367 207.646Z" fill="white"/>
<path d="M250.484 230L229.081 242.358L235.397 225.912L239.782 231.104L244.259 224.736L250.484 230Z" fill="#62A230"/>
<path opacity="0.4" d="M250.484 230L229.081 242.358L235.397 225.912L239.782 231.104L244.259 224.736L250.484 230Z" fill="white"/>
<path d="M243.053 219.738C243.018 220.416 242.823 221.076 242.483 221.664C242.144 222.252 241.67 222.752 241.101 223.121C240.028 223.745 239.149 223.234 239.149 221.997C239.187 221.32 239.383 220.661 239.722 220.073C240.061 219.485 240.534 218.986 241.101 218.614C242.185 217.99 243.053 218.491 243.053 219.738Z" fill="#62A230"/>
<path d="M259.918 93.0551C259.386 93.0518 258.86 93.1743 258.385 93.4129L149.425 156.029C148.169 156.754 147.125 157.797 146.399 159.053C145.672 160.308 145.288 161.733 145.286 163.184V249.206C145.285 249.579 145.362 249.948 145.511 250.29C145.665 250.64 145.891 250.953 146.174 251.21C146.458 251.467 146.792 251.662 147.155 251.781C147.518 251.901 147.903 251.943 148.283 251.904C148.664 251.866 149.032 251.747 149.364 251.557L258.282 188.931C259.54 188.207 260.585 187.165 261.312 185.909C262.039 184.653 262.421 183.227 262.422 181.776V95.7638C262.424 95.0794 262.167 94.4197 261.702 93.9173C261.238 93.4148 260.6 93.1068 259.918 93.0551Z" fill="white"/>
<path d="M248.807 179.016L166.648 226.454L190.924 163.296L207.728 183.258L224.91 158.788L248.807 179.016Z" fill="#62A230"/>
<path opacity="0.4" d="M248.807 179.016L166.648 226.454L190.924 163.296L207.728 183.258L224.91 158.788L248.807 179.016Z" fill="white"/>
<path d="M220.31 139.623C220.167 142.224 219.412 144.755 218.109 147.01C216.806 149.265 214.99 151.182 212.808 152.604C208.719 154.986 205.315 153.054 205.315 148.271C205.457 145.671 206.209 143.14 207.511 140.885C208.813 138.63 210.627 136.713 212.808 135.29C216.988 132.898 220.31 134.84 220.31 139.623Z" fill="#62A230"/>
<path d="M289.041 134.164C292.515 128.146 292.514 121.641 289.038 119.634C285.562 117.627 279.928 120.879 276.453 126.897C272.979 132.915 272.98 139.42 276.456 141.427C279.932 143.434 285.566 140.182 289.041 134.164Z" fill="white"/>
<path d="M279.144 133.031C278.961 133.034 278.783 132.975 278.638 132.865C278.492 132.755 278.388 132.6 278.341 132.424C278.294 132.247 278.307 132.061 278.378 131.893C278.45 131.725 278.575 131.586 278.735 131.497L285.89 127.327C285.984 127.273 286.087 127.237 286.195 127.223C286.302 127.209 286.412 127.216 286.516 127.245C286.621 127.274 286.719 127.323 286.804 127.389C286.89 127.456 286.961 127.539 287.014 127.634C287.123 127.823 287.152 128.046 287.097 128.257C287.041 128.467 286.905 128.647 286.718 128.758L279.502 132.918C279.392 132.981 279.27 133.019 279.144 133.031Z" fill="#62A230"/>
<path d="M281.955 136.434C281.813 136.434 281.672 136.399 281.546 136.332C281.359 136.221 281.223 136.041 281.168 135.831C281.112 135.62 281.142 135.397 281.25 135.208L285.236 128.298L281.546 126.172C281.453 126.118 281.371 126.046 281.306 125.96C281.241 125.874 281.193 125.776 281.165 125.671C281.138 125.567 281.131 125.458 281.146 125.351C281.16 125.244 281.196 125.141 281.25 125.048C281.304 124.955 281.377 124.873 281.462 124.807C281.548 124.742 281.646 124.694 281.751 124.667C281.855 124.639 281.964 124.633 282.071 124.647C282.178 124.662 282.281 124.697 282.374 124.751L286.77 127.286C286.955 127.399 287.09 127.578 287.148 127.787C287.178 127.891 287.187 128 287.173 128.108C287.159 128.215 287.122 128.318 287.066 128.411L282.671 136.026C282.598 136.151 282.494 136.255 282.368 136.327C282.243 136.399 282.1 136.436 281.955 136.434Z" fill="#62A230"/>
<path d="M133.848 216.692C133.848 222.365 129.862 229.264 124.945 232.106C120.029 234.947 116.053 232.637 116.053 226.995C116.053 221.353 120.039 214.423 124.945 211.592C129.852 208.76 133.848 211.019 133.848 216.692Z" fill="white"/>
<path d="M121.346 225.196C121.201 225.196 121.058 225.156 120.933 225.083C120.807 225.009 120.703 224.904 120.631 224.777C120.523 224.59 120.494 224.368 120.549 224.159C120.605 223.95 120.741 223.772 120.927 223.663L128.144 219.493C128.332 219.383 128.556 219.353 128.767 219.408C128.978 219.464 129.158 219.601 129.268 219.789C129.378 219.978 129.408 220.202 129.353 220.413C129.297 220.624 129.16 220.804 128.972 220.914L121.755 225.084C121.63 225.154 121.49 225.193 121.346 225.196Z" fill="#62A230"/>
<path d="M125.733 227.731C125.589 227.728 125.449 227.689 125.324 227.619L120.929 225.084C120.743 224.971 120.608 224.792 120.551 224.583C120.52 224.479 120.512 224.37 120.526 224.263C120.54 224.155 120.576 224.052 120.632 223.96L125.028 216.345C125.136 216.156 125.315 216.019 125.525 215.962C125.735 215.906 125.958 215.935 126.147 216.043C126.335 216.152 126.473 216.33 126.529 216.54C126.586 216.75 126.557 216.974 126.448 217.162L122.462 224.072L126.152 226.198C126.339 226.309 126.475 226.489 126.531 226.699C126.586 226.91 126.557 227.134 126.448 227.322C126.374 227.446 126.27 227.549 126.144 227.621C126.019 227.692 125.877 227.73 125.733 227.731Z" fill="#62A230"/>
<path d="M391.01 379.349C391.01 379.349 397.051 375.976 397.817 372.194C398.584 368.412 391.94 359.755 391.94 359.755C391.94 359.755 386.983 362.596 391.01 379.349Z" fill="#62A230"/>
<path opacity="0.2" d="M391.01 379.349C391.01 379.349 397.051 375.976 397.817 372.194C398.584 368.412 391.94 359.755 391.94 359.755C391.94 359.755 386.983 362.596 391.01 379.349Z" fill="black"/>
<path d="M317.038 391.011L325.859 385.809L327.014 376.988L323.978 376.272L317.038 391.011Z" fill="#62A230"/>
<path opacity="0.3" d="M317.038 391.011L325.859 385.809L327.014 376.988L323.978 376.272L317.038 391.011Z" fill="black"/>
<path d="M369.228 340.273L377.466 353.428L382.965 371.642C382.965 371.642 393.095 370.385 386.717 346.998L381.954 332.893L369.228 340.273Z" fill="#FFCACA"/>
<path d="M315.3 345.189L317.038 366.153L310.966 382.19C310.966 382.19 314.033 389.713 323.549 373.809C328.598 365.376 328.772 363.7 328.772 363.7L330.816 345.189H315.3Z" fill="#FFCACA"/>
<path d="M323.16 141.028L320.094 147.161C320.049 147.25 320.024 147.347 320.02 147.447C320.016 147.546 320.034 147.645 320.072 147.737C320.109 147.83 320.167 147.912 320.239 147.98C320.312 148.049 320.398 148.1 320.492 148.132L324.172 149.359L323.16 141.028Z" fill="#703838"/>
<path d="M327.453 130.746C327.453 130.746 322.792 133.301 322.792 147.795C322.792 155.778 323.344 160.858 327.494 160.551C331.644 160.244 343.572 158.67 343.572 158.67V130.746H327.453Z" fill="#FFCACA"/>
<path d="M327.453 160.551C328.904 160.439 331.327 160.173 333.851 159.876V158.394C331.575 159.374 329.196 160.094 326.758 160.541C326.989 160.565 327.221 160.568 327.453 160.551Z" fill="#703838"/>
<path d="M333.147 157.771V166.888H345.607V154.081L333.147 157.771Z" fill="#FFA8A7"/>
<path d="M354.479 189.774L362.574 206.404L356.523 214.356L360.724 228.564L373.736 213.232C374.87 211.901 375.621 210.287 375.911 208.563C376.201 206.839 376.018 205.068 375.381 203.44C371.804 194.24 364.669 176.098 362.737 172.888C360.141 168.554 357.034 166.244 352.373 166.387C347.712 166.53 354.479 189.774 354.479 189.774Z" fill="#FFCACA"/>
<path d="M358.383 217.116C360.264 222.758 364.363 230.69 364.189 257.367C364.076 276.011 364.25 286.498 364.363 291.098C364.4 292.751 365.048 294.331 366.182 295.534C368.155 297.578 371.538 301.994 374.717 310.334C377.561 317.705 379.977 325.234 381.953 332.883C381.953 332.883 379.633 340.406 369.228 340.262L343.235 298.426C342.189 296.753 341.516 294.874 341.262 292.917L334.424 240.952V219.702L358.383 217.116Z" fill="#37474F"/>
<path d="M339.873 282.624L347.11 256.713C347.11 256.713 357.27 246.379 353.651 228.564L338.319 247.892L339.096 277.401L339.873 282.624Z" fill="#263238"/>
<path d="M316.026 218.547C315.597 226.928 311.038 279.118 311.693 294.297C312.347 309.476 315.301 345.189 315.301 345.189C315.301 345.189 325.134 349.278 330.776 345.189C330.776 345.189 333.157 331.124 334.711 319.983C335.661 314.233 335.463 308.352 334.128 302.678C333.582 300.601 333.582 298.418 334.128 296.341L345.198 253.821C345.198 253.821 354.765 247.105 354.765 228.564V214.642L316.026 218.547Z" fill="#37474F"/>
<path d="M342.632 160.49L322.793 167.798C322.793 167.798 313.46 175.893 313.46 191.368C313.46 195.702 317.661 199.607 317.661 199.607C317.661 199.607 316.21 213.191 316.067 218.547C316.067 218.547 326.288 225.702 345.249 222.881C352.066 221.859 358.424 217.095 358.424 217.095C358.424 217.095 355.531 205.096 355.102 203.941C354.673 202.786 359.191 188.762 359.191 177.631L342.632 160.49Z" fill="#62A230"/>
<path d="M325.031 133.976C325.031 133.976 325.828 140.998 330.305 142.909C330.305 142.909 326.758 147.774 332.033 149.911V146.149L334.24 150.452C334.24 150.452 328.026 175.607 338.799 175.607C340.665 175.637 342.479 174.995 343.91 173.798C343.91 173.798 345.566 180.38 355.542 180.38C365.518 180.38 367.398 170.619 367.398 170.619C367.398 170.619 360.755 172.663 360.755 165.703C360.755 158.742 360.243 136.5 359.886 133.107C359.212 129.552 357.403 126.312 354.73 123.874C352.058 121.435 348.666 119.93 345.065 119.584C337.297 118.664 327.208 118.725 321.423 126.739C315.638 134.752 323.927 136.96 323.927 136.96C323.927 136.96 324.06 136.735 325.031 133.976Z" fill="#263238"/>
<path d="M331.991 146.149C331.991 146.149 331.654 140.016 336.407 140.487C341.865 141.028 340.127 150.892 333.473 150.892L331.991 146.149Z" fill="#FFCACA"/>
<path d="M322.793 167.798C310.661 171.651 287.591 183.845 287.591 183.845L266.484 165.202L258.562 173.726C265.095 182.472 272.529 190.506 280.743 197.695C282.052 198.849 283.655 199.617 285.375 199.915C287.094 200.213 288.863 200.028 290.484 199.382C294.715 197.695 300.705 195.355 305.182 193.678C312.991 190.786 329.468 186.738 329.468 177.774C329.468 168.81 322.793 167.798 322.793 167.798Z" fill="#FFCACA"/>
<path d="M328.772 363.7C327.257 363.947 325.821 364.545 324.579 365.447C323.336 366.348 322.322 367.528 321.618 368.892C319.297 373.523 314.963 386.534 310.916 382.18L312.285 378.552C312.285 378.552 296.115 382.098 300.02 386.33C303.924 390.562 316.026 392.463 317.038 391.001C318.05 389.539 323.549 379.144 323.549 379.144L326.616 393.025C327.057 393.408 327.621 393.619 328.205 393.619C328.789 393.619 329.354 393.408 329.795 393.025C329.795 393.025 333.72 366.449 328.772 363.7Z" fill="#62A230"/>
<path d="M382.966 371.642C382.966 371.642 386.717 370.047 386.144 365.141C385.572 360.235 381.811 350.433 386.717 346.998C388.894 345.475 393.729 352.109 397.817 360.082C401.906 368.054 403.061 370.303 403.061 370.303C403.061 370.303 402.601 372.419 400.74 372.347L391.776 363.097C391.197 365.922 391.298 368.844 392.073 371.622C393.371 375.955 393.545 378.48 388.822 380.586C384.1 382.691 371.17 385.563 378.08 376.824C381.514 372.48 382.966 371.642 382.966 371.642Z" fill="#62A230"/>
<path d="M266.647 166.428C267.143 163.485 267.826 160.576 268.691 157.72C269.642 155.267 270.061 153.181 267.73 154.112C265.4 155.042 263.56 159.222 263.397 159.754C263.397 159.754 251.55 145.73 249.915 145.873C248.279 146.016 248.494 148.009 251.642 152.292L254.78 156.585C254.78 156.585 246.49 160.5 247.38 165.57C248.269 170.64 258.511 173.747 258.511 173.747L266.647 166.428Z" fill="#FFCACA"/>
</svg>
